<svg width="20" height="21" viewBox="0 0 20 21" fill="none" xmlns="http://www.w3.org/2000/svg">
<path fill-rule="evenodd" clip-rule="evenodd" d="M1.71547 11.1943C2.53069 13.0799 3.644 14.6107 4.95085 15.7052L6.98796 12.1768C6.83324 11.8011 6.74799 11.3902 6.74799 10.96C6.74799 9.33 7.96028 7.98277 9.53801 7.75997L11.4558 4.43829C10.9798 4.34232 10.4936 4.29329 10 4.29329H9.99189C6.55287 4.29329 3.4553 6.69329 1.71547 10.7175C1.65043 10.8711 1.65043 11.0488 1.71547 11.1943ZM9.99189 17.6266C9.50128 17.6266 9.01762 17.5776 8.54386 17.4819L10.467 14.1509C12.0352 13.9252 13.2439 12.5801 13.2439 10.96C13.2439 10.5317 13.1603 10.123 13.0084 9.74912L15.0493 6.21412C16.3559 7.30346 17.47 8.83335 18.2846 10.7175C18.3496 10.8711 18.3496 11.0488 18.2846 11.1943C16.5447 15.2185 13.4472 17.6266 10 17.6266H9.99189Z" fill="#1A4563"/>
<path d="M13.1339 3.53177C13.4101 3.05347 14.0216 2.8896 14.4999 3.16574C14.9782 3.44188 15.1421 4.05347 14.866 4.53177L6.86596 18.3882C6.58982 18.8665 5.97823 19.0303 5.49994 18.7542C5.02164 18.4781 4.85777 17.8665 5.13391 17.3882L13.1339 3.53177Z" fill="#1A4563"/>
</svg>
