<svg width="20" height="20" viewBox="0 0 20 20" fill="none" xmlns="http://www.w3.org/2000/svg">
<path fill-rule="evenodd" clip-rule="evenodd" d="M6.74811 10.0002C6.74811 11.7779 8.20339 13.2244 10.0001 13.2244C11.7888 13.2244 13.244 11.7779 13.244 10.0002C13.244 8.2143 11.7888 6.76784 10.0001 6.76784C8.20339 6.76784 6.74811 8.2143 6.74811 10.0002ZM14.7806 5.03855C16.2034 6.13754 17.4148 7.74562 18.2847 9.75774C18.3497 9.91127 18.3497 10.0891 18.2847 10.2345C16.5449 14.2587 13.4473 16.6668 10.0001 16.6668H9.99201C6.55299 16.6668 3.45543 14.2587 1.71559 10.2345C1.65055 10.0891 1.65055 9.91127 1.71559 9.75774C3.45543 5.7335 6.55299 3.3335 9.99201 3.3335H10.0001C11.7237 3.3335 13.3579 3.93148 14.7806 5.03855ZM10.0011 12.0105C11.1149 12.0105 12.0255 11.1055 12.0255 9.99839C12.0255 8.88323 11.1149 7.97818 10.0011 7.97818C9.90355 7.97818 9.80599 7.98626 9.71656 8.00243C9.68404 8.89131 8.95234 9.60243 8.0499 9.60243H8.00925C7.98486 9.73172 7.9686 9.86101 7.9686 9.99839C7.9686 11.1055 8.87916 12.0105 10.0011 12.0105Z" fill="#1A4563"/>
</svg>
